<svg width="151" height="152" viewBox="0 0 151 152" fill="none" xmlns="http://www.w3.org/2000/svg">
<g clip-path="url(#clip0_436_5769)">
<path d="M27.6252 134.893L26.7085 131.276C25.0828 130.587 23.4195 129.99 21.7266 129.489L21.6109 131.169L21.1416 129.318C19.0422 128.718 17.6138 128.454 17.6138 128.454C17.6138 128.454 19.5429 135.791 23.5899 141.4L28.305 142.228L24.642 142.756C25.151 143.369 25.698 143.949 26.2798 144.493C32.1663 149.957 38.7229 152.464 40.9242 150.092C43.1255 147.719 40.1381 141.368 34.2514 135.904C32.4271 134.21 30.1342 132.851 27.8393 131.78L27.6252 134.893Z" fill="#F2F2F2"/>
<path d="M36.3447 130.965L37.429 127.395C36.3936 125.965 35.2783 124.595 34.0885 123.29L33.1207 124.669L33.676 122.841C32.1887 121.243 31.1025 120.278 31.1025 120.278C31.1025 120.278 28.962 127.556 29.5265 134.45L33.1346 137.596L29.7252 136.154C29.8445 136.942 30.0132 137.721 30.2304 138.488C32.4451 146.208 36.762 151.744 39.8724 150.851C42.9827 149.959 43.7086 142.977 41.4937 135.256C40.8071 132.862 39.5471 130.514 38.1359 128.412L36.3447 130.965Z" fill="#F2F2F2"/>
<path d="M113.026 35.8799H112.196V13.1537C112.196 9.66526 110.811 6.31965 108.344 3.85286C105.878 1.38608 102.532 0.000166846 99.044 0H50.8965C47.4081 0 44.0627 1.38584 41.596 3.85264C39.1294 6.31945 37.7437 9.66515 37.7437 13.1537V137.834C37.7437 139.561 38.0839 141.271 38.7449 142.867C39.4058 144.463 40.3747 145.913 41.596 147.135C42.8174 148.356 44.2673 149.325 45.8631 149.986C47.4589 150.647 49.1692 150.987 50.8965 150.987H99.044C102.532 150.987 105.878 149.601 108.344 147.135C110.811 144.668 112.197 141.322 112.197 137.834V52.0567H113.026L113.026 35.8799Z" fill="#E6E6E6"/>
<path d="M99.5742 3.42086H93.29C93.579 4.12952 93.6893 4.89838 93.6112 5.65971C93.533 6.42104 93.2689 7.15147 92.842 7.78665C92.4151 8.42183 91.8385 8.94227 91.1631 9.30213C90.4877 9.66198 89.7342 9.8502 88.9689 9.85021H61.3861C60.6208 9.85023 59.8672 9.66202 59.1918 9.30215C58.5164 8.94229 57.9398 8.42182 57.5129 7.78659C57.086 7.15137 56.8219 6.4209 56.7439 5.65954C56.6658 4.89819 56.7761 4.12931 57.0652 3.42065H51.1956C48.5905 3.42065 46.0921 4.4556 44.25 6.29781C42.4079 8.14002 41.373 10.6386 41.373 13.2439V137.743C41.373 140.348 42.4079 142.847 44.25 144.689C46.0921 146.531 48.5905 147.566 51.1956 147.566H99.5742C102.179 147.566 104.678 146.531 106.52 144.689C108.362 142.847 109.397 140.348 109.397 137.743V13.2437C109.397 10.6385 108.362 8.13996 106.52 6.29781C104.678 4.45565 102.179 3.42071 99.5744 3.42065L99.5742 3.42086Z" fill="#F0F7FE"/>
<path d="M69.2201 53.0147C69.22 52.1443 69.4491 51.2893 69.8845 50.5356C70.3198 49.7819 70.9461 49.1563 71.7001 48.7216C70.9466 48.2865 70.0919 48.0574 69.2218 48.0574C68.3517 48.0573 67.497 48.2863 66.7435 48.7214C65.99 49.1564 65.3643 49.7822 64.9292 50.5357C64.4942 51.2892 64.2651 52.144 64.2651 53.0142C64.2651 53.8843 64.4942 54.7391 64.9292 55.4926C65.3643 56.2462 65.99 56.8719 66.7435 57.307C67.497 57.742 68.3517 57.971 69.2218 57.971C70.0919 57.9709 70.9466 57.7418 71.7001 57.3067C70.9463 56.8721 70.3203 56.2466 69.8851 55.4931C69.4499 54.7397 69.2208 53.8848 69.2209 53.0147H69.2201Z" fill="#CCCCCC"/>
<path d="M75.451 53.0147C75.4509 52.1443 75.68 51.2892 76.1154 50.5356C76.5508 49.7819 77.177 49.1563 77.931 48.7216C77.1776 48.2865 76.3228 48.0574 75.4528 48.0574C74.5827 48.0573 73.728 48.2863 72.9745 48.7214C72.2209 49.1564 71.5952 49.7822 71.1602 50.5357C70.7251 51.2892 70.4961 52.144 70.4961 53.0142C70.4961 53.8843 70.7251 54.7391 71.1602 55.4926C71.5952 56.2462 72.2209 56.8719 72.9745 57.307C73.728 57.742 74.5827 57.971 75.4528 57.971C76.3228 57.9709 77.1776 57.7418 77.931 57.3067C77.1773 56.8721 76.5512 56.2466 76.116 55.4931C75.6808 54.7397 75.4517 53.8848 75.4519 53.0147H75.451Z" fill="#CCCCCC"/>
<path d="M81.5404 57.9715C84.2778 57.9715 86.4969 55.7522 86.4969 53.0147C86.4969 50.2771 84.2778 48.0579 81.5404 48.0579C78.8031 48.0579 76.584 50.2771 76.584 53.0147C76.584 55.7522 78.8031 57.9715 81.5404 57.9715Z" fill="#624BEF"/>
<path d="M89.8238 68.4968H60.9363C60.6613 68.4965 60.3976 68.3871 60.2031 68.1926C60.0087 67.9981 59.8993 67.7344 59.8989 67.4594V38.57C59.8995 38.2951 60.009 38.0317 60.2034 37.8374C60.3979 37.6431 60.6614 37.5338 60.9363 37.5334H89.8238C90.0988 37.5338 90.3625 37.6432 90.557 37.8377C90.7514 38.0321 90.8608 38.2958 90.8611 38.5709V67.4583C90.8608 67.7334 90.7514 67.9971 90.557 68.1915C90.3625 68.386 90.0988 68.4954 89.8238 68.4958V68.4968ZM60.9363 37.9478C60.7713 37.948 60.6131 38.0136 60.4964 38.1303C60.3797 38.247 60.3141 38.4052 60.3139 38.5702V67.4596C60.3141 67.6246 60.3797 67.7828 60.4964 67.8995C60.6131 68.0162 60.7713 68.0818 60.9363 68.082H89.8238C89.9888 68.0818 90.147 68.0162 90.2637 67.8995C90.3804 67.7828 90.446 67.6246 90.4462 67.4596V38.5702C90.446 38.4052 90.3804 38.247 90.2637 38.1303C90.147 38.0136 89.9888 37.948 89.8238 37.9478H60.9363Z" fill="#CCCCCC"/>
<path d="M96.2739 90.6416H51.9697V91.0566H96.2739V90.6416Z" fill="#CCCCCC"/>
<path d="M53.3688 87.9812C54.1415 87.9812 54.7678 87.3547 54.7678 86.582C54.7678 85.8093 54.1415 85.1829 53.3688 85.1829C52.5961 85.1829 51.9697 85.8093 51.9697 86.582C51.9697 87.3547 52.5961 87.9812 53.3688 87.9812Z" fill="#624BEF"/>
<path d="M94.6806 141.72H55.3315C54.6519 141.72 54.0003 141.58 53.5197 141.331C53.0392 141.082 52.7688 140.744 52.7681 140.392V133.248C52.7688 132.896 53.0392 132.559 53.5197 132.31C54.0003 132.061 54.6519 131.921 55.3315 131.92H94.6806C95.3603 131.921 96.0118 132.061 96.4924 132.31C96.973 132.559 97.2433 132.896 97.2441 133.248V140.392C97.2433 140.744 96.973 141.082 96.4924 141.331C96.0118 141.58 95.3603 141.72 94.6806 141.72Z" fill="#624BEF"/>
<path d="M57.6744 87.9812C58.4471 87.9812 59.0735 87.3547 59.0735 86.582C59.0735 85.8093 58.4471 85.1829 57.6744 85.1829C56.9018 85.1829 56.2754 85.8093 56.2754 86.582C56.2754 87.3547 56.9018 87.9812 57.6744 87.9812Z" fill="#624BEF"/>
<path d="M61.9806 87.9812C62.7533 87.9812 63.3796 87.3547 63.3796 86.582C63.3796 85.8093 62.7533 85.1829 61.9806 85.1829C61.2079 85.1829 60.5815 85.8093 60.5815 86.582C60.5815 87.3547 61.2079 87.9812 61.9806 87.9812Z" fill="#624BEF"/>
<path d="M66.2863 87.9812C67.0589 87.9812 67.6853 87.3547 67.6853 86.582C67.6853 85.8093 67.0589 85.1829 66.2863 85.1829C65.5136 85.1829 64.8872 85.8093 64.8872 86.582C64.8872 87.3547 65.5136 87.9812 66.2863 87.9812Z" fill="#624BEF"/>
<path d="M70.5919 87.9812C71.3646 87.9812 71.991 87.3547 71.991 86.582C71.991 85.8093 71.3646 85.1829 70.5919 85.1829C69.8192 85.1829 69.1929 85.8093 69.1929 86.582C69.1929 87.3547 69.8192 87.9812 70.5919 87.9812Z" fill="#624BEF"/>
<path d="M74.8976 87.9812C75.6703 87.9812 76.2966 87.3547 76.2966 86.582C76.2966 85.8093 75.6703 85.1829 74.8976 85.1829C74.1249 85.1829 73.4985 85.8093 73.4985 86.582C73.4985 87.3547 74.1249 87.9812 74.8976 87.9812Z" fill="#624BEF"/>
<path d="M150.396 151.52H0.580423C0.259807 151.52 0 151.406 0 151.265C0 151.124 0.259807 151.009 0.580423 151.009H150.396C150.717 151.009 150.977 151.124 150.977 151.265C150.977 151.406 150.717 151.52 150.396 151.52Z" fill="#E6E6E6"/>
<path d="M131.214 94.9757L127.691 101.95L117.16 106.738C116.035 108.639 112.461 108.785 112.201 107.556C111.91 106.177 116.542 103.957 116.542 103.957L125.351 97.9984L126.122 92.8684L131.214 94.9757Z" fill="#FFB9B9"/>
<path d="M130.798 141.777L131.448 146.974L127.68 147.234L127.291 141.777L130.798 141.777Z" fill="#FFB9B9"/>
<path d="M130.279 146.195C130.616 145.839 130.926 145.459 131.209 145.058C131.749 144.311 132.228 148.144 132.228 148.144C132.228 148.144 132.748 149.703 132.618 150.483C132.487 151.262 129.499 151.262 128.98 151.133C128.46 151.003 125.861 151.133 125.861 151.133H121.964C118.586 149.574 121.964 148.534 121.964 148.534C123.003 148.404 126.511 145.156 126.511 145.156L127.291 143.727C127.81 143.597 128.33 145.546 128.33 145.546L130.279 146.195Z" fill="#090814"/>
<path d="M140.543 141.842L141.193 147.039L137.425 147.299L137.035 141.842H140.543Z" fill="#FFB9B9"/>
<path d="M140.023 146.26C140.36 145.904 140.671 145.524 140.953 145.123C141.493 144.375 141.972 148.209 141.972 148.209C141.972 148.209 142.491 149.638 142.362 150.418C142.232 151.197 139.244 151.197 138.724 151.068C138.204 150.938 135.606 151.198 135.606 151.198H131.708C128.33 149.639 131.708 148.599 131.708 148.599C132.747 148.469 136.255 145.221 136.255 145.221L137.035 143.792C137.555 143.662 138.074 145.611 138.074 145.611L140.023 146.26Z" fill="#090814"/>
<path d="M136.255 108.319C136.775 108.969 136.515 111.178 136.515 111.178C136.515 111.178 137.424 118.324 137.034 118.974C136.645 119.624 137.294 120.143 137.684 121.053C138.075 121.963 138.464 124.171 138.464 124.171C140.673 125.99 140.543 134.306 140.543 134.306L141.322 141.712C141.063 142.492 137.425 142.622 136.905 142.492C136.385 142.362 134.826 130.668 134.826 130.668L131.318 124.041C131.318 124.041 131.578 141.712 131.578 142.492C131.578 143.271 128.07 142.881 127.291 142.881C126.511 142.881 126.511 129.888 126.511 129.888L125.731 126.51L121.574 111.048V109.228L122.224 108.319C122.224 108.319 135.735 107.67 136.255 108.319Z" fill="#090814"/>
<path d="M130.539 78.8248C132.763 78.8248 134.567 77.0214 134.567 74.7968C134.567 72.5722 132.763 70.7688 130.539 70.7688C128.315 70.7688 126.511 72.5722 126.511 74.7968C126.511 77.0214 128.315 78.8248 130.539 78.8248Z" fill="#FFB9B9"/>
<path d="M128.525 76.6807C129.342 78.4988 128.858 81.0381 127.225 83.827L133.851 80.7087L132.812 79.7992L133.072 77.2005L128.525 76.6807Z" fill="#FFB9B9"/>
<path d="M128.524 80.8385C127.657 81.3544 127.138 82.3023 126.84 83.2669C126.288 85.0526 125.956 86.8989 125.851 88.765L125.536 94.3515L121.639 109.164C125.017 112.023 126.965 111.373 131.513 109.034C136.061 106.695 136.58 109.814 136.58 109.814C136.58 109.814 136.97 109.684 136.58 109.294C136.19 108.905 136.58 109.294 136.97 108.905C137.36 108.515 136.97 108.905 136.84 108.515C136.71 108.125 136.84 108.385 136.97 108.255C137.1 108.125 136.45 106.955 136.45 106.955L137.49 97.2098L138.79 83.437C137.231 81.488 132.813 79.7988 132.813 79.7988L128.784 82.6573C127.484 83.177 128.525 81.0982 128.525 81.0982L128.524 80.8385Z" fill="#624BEF"/>
<path d="M140.932 91.688L141.452 99.484L134.826 108.969C134.826 111.178 133.656 111.698 133.656 111.698C133.214 110.991 132.823 110.253 132.487 109.489C131.837 108.06 132.877 106.89 132.877 106.89L137.424 97.2754L135.475 92.4679L140.932 91.688Z" fill="#FFB9B9"/>
<path d="M138.724 83.5023C140.933 84.282 141.323 92.7276 141.323 92.7276C138.724 91.2983 135.606 93.6371 135.606 93.6371C135.606 93.6371 134.956 91.4283 134.177 88.5698C133.942 87.7657 133.914 86.9152 134.095 86.0973C134.277 85.2794 134.663 84.5208 135.217 83.8921C135.217 83.8921 136.515 82.7228 138.724 83.5023Z" fill="#624BEF"/>
<path d="M134.241 76.0309C133.729 75.6208 133.029 76.3665 133.029 76.3665L132.619 72.6744C132.619 72.6744 130.055 72.982 128.415 72.5719C126.774 72.1617 126.518 74.0589 126.518 74.0589C126.433 73.2929 126.416 72.5211 126.466 71.7521C126.569 70.8294 127.902 69.9067 130.261 69.2908C132.619 68.6749 133.85 71.3419 133.85 71.3419C135.49 72.1617 134.754 76.4413 134.241 76.0309Z" fill="#090814"/>
</g>
<defs>
<clipPath id="clip0_436_5769">
<rect width="150.977" height="151.52" fill="white"/>
</clipPath>
</defs>
</svg>
