<svg width="32" height="36" viewBox="0 0 32 36" fill="none" xmlns="http://www.w3.org/2000/svg">
<path d="M30.6116 15.7686L30.1868 17.9022C29.3324 22.2818 24.9674 25.8656 20.5145 25.8656H9.25541C8.73298 25.8656 8.28379 26.2269 8.18614 26.7347L7.14128 32.0664C7.04363 32.5742 6.58955 32.9453 6.06224 32.9453H1.10159C0.408269 32.9453 -0.109279 32.3252 0.0225498 31.6563L2.84953 17.3603C2.88859 17.5849 3.09366 17.7509 3.32802 17.7362L10.0708 17.2528L9.93897 17.9071C9.85108 18.3954 10.1636 18.7908 10.6616 18.7908H21.9109C22.4041 18.7908 22.9021 18.3954 22.99 17.9071L23.3073 16.3056L30.5335 15.7881C30.5579 15.7783 30.5823 15.7734 30.6116 15.7686Z" fill="white"/>
<path d="M31.481 11.3645L30.8853 14.3917L30.8658 14.1378C30.8463 13.8888 30.6314 13.7032 30.3824 13.7179L23.7227 14.1915L24.1767 11.8869L31.4615 11.3645C31.4712 11.3694 31.4761 11.3694 31.481 11.3645Z" fill="#04E6DA"/>
<path d="M10.9449 12.8394L10.4859 15.139L3.18164 15.6615L3.74313 12.8296L3.74801 12.9028C3.76754 13.1518 3.98238 13.3374 4.23138 13.3227L10.9449 12.8394Z" fill="#04E6DA"/>
<path d="M31.7982 9.74857V9.71928C31.7787 9.47027 31.5638 9.28473 31.3148 9.29938L24.5818 9.78275C24.5867 9.37262 24.2889 9.05525 23.8446 9.05525H12.6001C12.0728 9.05525 11.6236 9.42144 11.5211 9.92923L11.3599 10.73L4.08008 11.2524C4.07031 11.2524 4.06055 11.2524 4.05078 11.2573L5.71084 2.85444C5.80849 2.34666 6.26257 1.98047 6.78988 1.98047H25.2361C29.6304 1.98047 32.5306 5.45683 31.7982 9.74857Z" fill="white"/>
</svg>
