<svg width="175" height="152" viewBox="0 0 175 152" fill="none" xmlns="http://www.w3.org/2000/svg">
<g clip-path="url(#clip0_436_5709)">
<path d="M55.874 23.3537C55.8749 19.1494 57.041 15.0276 59.2428 11.446C61.4447 7.86433 64.5961 4.96302 68.3472 3.06417C72.0982 1.16532 76.3022 0.343247 80.4922 0.689215C84.6823 1.03518 88.6945 2.53566 92.0833 5.02404C95.4721 7.51242 98.105 10.8913 99.6895 14.7856C101.274 18.6799 101.748 22.9371 101.06 27.0846C100.371 31.2321 98.5462 35.1076 95.7881 38.2808C93.0299 41.4539 89.4463 43.8006 85.4351 45.0601L84.6749 88.8361L49.9082 54.5207C49.9082 54.5207 63.464 49.2721 66.0609 42.3168C62.9277 40.2444 60.3572 37.4276 58.5795 34.1184C56.8017 30.8092 55.8722 27.1108 55.874 23.3543V23.3537Z" fill="#ED9DA0"/>
<path d="M66.1622 42.3299C66.1622 42.3299 58.4012 39.5658 54.4229 31.4935C50.7686 24.0798 50.3678 11.4476 60.7437 8.37988C60.7437 8.37988 54.7658 3.21865 65.7871 0.0741827L64.3212 1.42666C64.3212 1.42666 65.6149 -0.909682 72.0034 0.472041C72.0034 0.472041 95.6102 -2.27752 99.8003 5.49533C99.8003 5.49533 112.471 8.0919 105.723 17.73C105.723 17.73 105.374 19.6056 102.967 19.5701L104.17 17.997L100.504 19.5701C100.504 19.5701 95.4052 11.449 90.5931 15.9395C90.5931 15.9395 81.3898 15.5523 76.988 14.7459C76.988 14.7459 77.8714 26.5679 69.4231 28.8703C60.9747 31.1727 66.1622 42.3299 66.1622 42.3299Z" fill="#1F1E25"/>
<path d="M144.21 118.726L102.635 143.527L99.1792 127.414L138.571 108.698C139.317 105.866 141.381 103.158 144.441 101.437C149.795 98.4262 156.155 99.5763 158.648 104.007C161.14 108.437 158.819 114.471 153.465 117.482C150.405 119.203 147.019 119.558 144.212 118.725L144.21 118.726Z" fill="#ED9DA0"/>
<path d="M147.738 117.45H139.27C138.56 117.446 137.872 117.202 137.319 116.756C136.767 116.311 136.382 115.691 136.227 114.998C136.113 114.467 136.139 113.915 136.303 113.397C136.467 112.88 136.763 112.413 137.162 112.045L162.983 88.2779C163.382 87.9097 163.911 87.714 164.454 87.7332L172.651 88.0159C173.051 88.0302 173.437 88.1599 173.764 88.3893C174.092 88.6188 174.345 88.9381 174.495 89.3086C174.644 89.6792 174.683 90.0852 174.607 90.4774C174.53 90.8696 174.342 91.2313 174.064 91.5186L149.791 116.58C149.524 116.855 149.205 117.073 148.852 117.222C148.5 117.371 148.121 117.449 147.739 117.449L147.738 117.45Z" fill="#191C1D"/>
<path d="M57.5913 48.7512C67.1736 58.3802 76.2732 60.9643 84.6469 52.9363L96.4718 139.584L91.5552 146.708L61.6547 146.793L57.5913 48.7512Z" fill="#D6D6E3"/>
<path d="M56.0181 47.88L51.0181 51.9894L35.8387 60.6531C32.5991 61.8568 29.6784 63.7868 27.3008 66.2949C24.9232 68.8031 23.152 71.8227 22.123 75.1219C19.6979 82.9153 17.9778 90.9108 16.9837 99.012C14.4887 119.497 16.3005 146.508 16.3005 146.508L39.378 146.709L38.3738 133.163L34.6631 99.65L34.7615 146.793H61.6537C61.6537 146.793 63.4941 66.8348 59.4836 49.0529C59.4008 48.6959 59.2281 48.366 58.982 48.0944C58.7359 47.8228 58.4245 47.6186 58.0773 47.5012C57.7302 47.3837 57.3588 47.3569 56.9983 47.4232C56.6379 47.4896 56.3004 47.6469 56.0178 47.8803L56.0181 47.88Z" fill="#624BEF"/>
<path d="M84.646 52.9363L102.829 61.6791C105.906 63.1585 108.599 65.3282 110.7 68.0191C112.8 70.7099 114.251 73.8494 114.939 77.1929L122.559 114.199L125.049 136.584C125.049 136.584 114.336 146.177 107.307 142.997L107.809 146.71H91.5543L84.646 52.9363Z" fill="#624BEF"/>
<path d="M111.321 120.42L132.692 108.58L138.813 125.537C138.813 125.537 126.528 140.758 107.307 142.997L111.32 120.421L111.321 120.42Z" fill="#624BEF"/>
<path d="M147.266 115.319C147.221 115.319 147.175 115.315 147.13 115.309L139.024 114.174C138.84 114.148 138.667 114.071 138.525 113.952C138.383 113.833 138.278 113.676 138.22 113.499C138.163 113.323 138.157 113.134 138.202 112.954C138.247 112.774 138.342 112.611 138.476 112.482L162.699 89.209C162.893 89.0289 163.148 88.9303 163.412 88.9334L171.954 89.1786C172.148 89.1841 172.336 89.2465 172.495 89.3581C172.653 89.4697 172.776 89.6256 172.846 89.8062C172.917 89.9869 172.933 90.1844 172.893 90.3741C172.852 90.5638 172.756 90.7373 172.618 90.8731L147.96 115.036C147.774 115.217 147.526 115.318 147.267 115.318L147.266 115.319Z" fill="#624BEF"/>
<path d="M159.03 96.8528C159.083 96.885 159.096 97.0153 159.108 97.0844C159.134 97.2282 159.301 99.9727 159.295 100.133C159.304 100.217 159.295 100.302 159.268 100.383C159.241 100.463 159.197 100.536 159.138 100.597C159.079 100.658 159.007 100.706 158.928 100.736C158.849 100.766 158.764 100.778 158.679 100.771C158.522 100.779 155.87 100.628 155.671 100.6C155.349 100.554 155.201 100.423 155.564 99.9946C155.859 99.6449 158.018 97.5676 158.588 96.9677C158.645 96.9106 158.716 96.8698 158.794 96.8496C158.872 96.8294 158.954 96.8305 159.032 96.8528H159.03Z" fill="#624BEF"/>
<path d="M111.385 148.518C107.089 141.225 103.84 133.363 101.734 125.164C99.6308 117.008 98.6568 108.602 98.8399 100.182C98.9432 95.4476 99.4247 90.729 100.28 86.0712C100.382 85.5139 99.5287 85.2737 99.4253 85.8349C98.6528 90.0297 98.1783 94.2739 98.0055 98.5357C97.8342 102.8 97.961 107.071 98.3847 111.318C98.8041 115.542 99.5101 119.733 100.498 123.862C101.492 128.012 102.773 132.088 104.333 136.06C105.89 140.03 107.726 143.884 109.827 147.594C110.088 148.053 110.352 148.51 110.621 148.964C110.68 149.066 110.778 149.14 110.891 149.169C111.005 149.199 111.126 149.183 111.227 149.123C111.329 149.064 111.402 148.967 111.432 148.853C111.462 148.74 111.445 148.619 111.386 148.517L111.385 148.518Z" fill="white"/>
<path d="M126.549 109.81C125.414 111.78 123.87 113.484 122.02 114.806C120.171 116.128 118.059 117.038 115.827 117.475C115.268 117.583 115.505 118.437 116.064 118.329C118.406 117.863 120.621 116.902 122.562 115.51C124.502 114.118 126.123 112.327 127.314 110.257C127.373 110.156 127.39 110.035 127.36 109.921C127.33 109.807 127.257 109.71 127.155 109.651C127.054 109.592 126.933 109.575 126.819 109.605C126.706 109.635 126.608 109.708 126.549 109.81Z" fill="white"/>
<path d="M39.4869 151.214C39.04 145.999 39.3581 140.694 39.7784 135.488C40.2273 129.503 41.0354 123.55 42.1983 117.661C42.6915 115.045 43.3737 112.467 44.2396 109.949C44.4334 109.412 43.5774 109.181 43.3851 109.713C42.6143 111.939 41.995 114.216 41.5314 116.526C40.9292 119.343 40.4539 122.187 40.0504 125.039C39.1855 131.032 38.655 137.069 38.4614 143.121C38.3534 145.819 38.4 148.521 38.6008 151.213C38.6492 151.777 39.5356 151.782 39.4869 151.213V151.214Z" fill="white"/>
<path d="M68.8372 140.158L35.9106 143.921L39.0711 131.28L68.2689 128.667C70.2009 126.467 73.2562 124.965 76.7627 124.792C82.8978 124.488 88.0753 128.358 88.3257 133.436C88.5762 138.513 83.8066 142.875 77.6716 143.178C74.1653 143.352 70.9768 142.158 68.8369 140.159L68.8372 140.158Z" fill="#ED9DA0"/>
<path d="M38.6536 126.988L63.0633 125.938L60.9677 143.844C60.9677 143.844 43.1781 151.976 24.9814 145.395L38.6536 126.988Z" fill="#624BEF"/>
<path d="M84.7664 53.3657L96.4741 139.157L97.4943 137.681L85.6693 51.0302C78.0193 58.3651 69.7632 56.8407 61.0863 49.1795C60.8859 49.0023 60.6389 48.8864 60.3746 48.8452C60.1103 48.8041 59.8398 48.8396 59.5951 48.9475C59.3503 49.0554 59.1416 49.2311 58.9937 49.4539C58.8457 49.6767 58.7647 49.9373 58.7603 50.2047C67.958 58.9806 76.6996 61.1001 84.7664 53.3651V53.3657Z" fill="#624BEF"/>
<path d="M138.825 148.288H0.697021C0.503783 148.26 0.327297 148.162 0.199717 148.014C0.0721365 147.867 0.00195312 147.678 0.00195312 147.482C0.00195313 147.287 0.0721365 147.098 0.199717 146.95C0.327297 146.802 0.503783 146.705 0.697021 146.676H138.825C139.021 146.702 139.2 146.798 139.33 146.947C139.46 147.095 139.531 147.285 139.531 147.482C139.531 147.679 139.46 147.87 139.33 148.018C139.2 148.166 139.021 148.262 138.825 148.288Z" fill="#CCCCCC"/>
</g>
<defs>
<clipPath id="clip0_436_5709">
<rect width="174.561" height="151.523" fill="white"/>
</clipPath>
</defs>
</svg>
