<svg width="187" height="201" viewBox="0 0 187 201" fill="none" xmlns="http://www.w3.org/2000/svg">
<g clip-path="url(#clip0_259_2483)">
<path d="M118.495 114.041L37.7465 134.834C35.0074 135.536 32.1017 135.123 29.6668 133.686C27.232 132.248 25.4668 129.903 24.7585 127.166L0.338024 32.3331C-0.364025 29.594 0.0490913 26.6883 1.48674 24.2534C2.9244 21.8186 5.26918 20.0534 8.00667 19.3451L83.1301 0L102.358 8.60777L126.164 101.053C126.866 103.792 126.453 106.698 125.015 109.132C123.577 111.567 121.233 113.333 118.495 114.041Z" fill="#F2F2F2"/>
<path d="M8.77236 22.3185C6.82293 22.8229 5.15316 24.0799 4.12938 25.8138C3.10559 27.5478 2.8114 29.617 3.31135 31.5675L27.7319 126.4C28.2362 128.35 29.4932 130.019 31.2272 131.043C32.9611 132.067 35.0303 132.361 36.9809 131.861L117.73 111.068C119.679 110.563 121.349 109.306 122.372 107.572C123.396 105.838 123.69 103.769 123.191 101.819L99.7537 10.8059L82.8557 3.24121L8.77236 22.3185Z" fill="white"/>
<path d="M102.153 9.09681L89.6561 12.3149C88.7438 12.5498 87.7755 12.4127 86.9643 11.9338C86.153 11.4548 85.5653 10.6732 85.3304 9.76085L82.9536 0.530784C82.9431 0.490375 82.9443 0.447851 82.957 0.408089C82.9696 0.368327 82.9932 0.332938 83.0251 0.305978C83.0569 0.279017 83.0958 0.261579 83.1371 0.255662C83.1784 0.249745 83.2205 0.255588 83.2586 0.272522L102.188 8.67892C102.23 8.69763 102.265 8.72899 102.289 8.76864C102.312 8.8083 102.323 8.85428 102.319 8.90021C102.315 8.94614 102.297 8.98975 102.267 9.02498C102.238 9.06021 102.198 9.08532 102.153 9.09681Z" fill="#F2F2F2"/>
<path d="M95.5784 90.0819L58.8147 99.549C58.5888 99.6072 58.3537 99.6203 58.1228 99.5876C57.8918 99.5549 57.6696 99.477 57.4688 99.3584C57.2679 99.2399 57.0924 99.0829 56.9522 98.8965C56.8121 98.71 56.71 98.4979 56.6518 98.272C56.5936 98.0461 56.5805 97.811 56.6132 97.5801C56.6459 97.3491 56.7238 97.1269 56.8424 96.9261C56.961 96.7252 57.118 96.5497 57.3044 96.4096C57.4908 96.2694 57.703 96.1673 57.9288 96.1091L94.6926 86.642C94.9184 86.5839 95.1535 86.5708 95.3845 86.6035C95.6154 86.6362 95.8376 86.714 96.0385 86.8326C96.2393 86.9512 96.4148 87.1082 96.555 87.2946C96.6952 87.481 96.7972 87.6932 96.8554 87.9191C96.9136 88.1449 96.9267 88.3801 96.894 88.611C96.8613 88.8419 96.7834 89.0641 96.6648 89.265C96.5463 89.4658 96.3893 89.6413 96.2029 89.7815C96.0164 89.9217 95.8042 90.0238 95.5784 90.0819Z" fill="#CCCCCC"/>
<path d="M104.168 94.0601L60.3095 105.354C59.8534 105.472 59.3692 105.403 58.9636 105.164C58.558 104.924 58.2642 104.533 58.1467 104.077C58.0292 103.621 58.0978 103.137 58.3373 102.731C58.5768 102.326 58.9676 102.032 59.4237 101.914L103.282 90.6202C103.738 90.5032 104.222 90.572 104.627 90.8116C105.033 91.0511 105.326 91.4417 105.444 91.8976C105.561 92.3535 105.492 92.8374 105.253 93.2428C105.014 93.6483 104.624 93.9423 104.168 94.0601Z" fill="#CCCCCC"/>
<path d="M43.8098 110.951C47.2767 110.951 50.0872 108.141 50.0872 104.674C50.0872 101.207 47.2767 98.3965 43.8098 98.3965C40.3429 98.3965 37.5325 101.207 37.5325 104.674C37.5325 108.141 40.3429 110.951 43.8098 110.951Z" fill="#E6E6E6"/>
<path d="M91.6695 73.6538L42.8437 86.2223C41.4326 86.5839 39.9357 86.3709 38.6815 85.6302C37.4272 84.8895 36.518 83.6815 36.1532 82.2712L25.9212 42.5219C25.5596 41.1108 25.7726 39.614 26.5133 38.3597C27.254 37.1054 28.462 36.1962 29.8723 35.8315L78.6982 23.2629C80.1092 22.9014 81.6061 23.1144 82.8604 23.8551C84.1146 24.5958 85.0239 25.8038 85.3886 27.2141L95.6207 66.9633C95.9822 68.3744 95.7693 69.8713 95.0285 71.1255C94.2878 72.3798 93.0798 73.289 91.6695 73.6538Z" fill="white"/>
<path d="M91.6695 73.6538L42.8437 86.2223C41.4326 86.5839 39.9357 86.3709 38.6815 85.6302C37.4272 84.8895 36.518 83.6815 36.1532 82.2712L25.9212 42.5219C25.5596 41.1108 25.7726 39.614 26.5133 38.3597C27.254 37.1054 28.462 36.1962 29.8723 35.8315L78.6982 23.2629C80.1092 22.9014 81.6061 23.1144 82.8604 23.8551C84.1146 24.5958 85.0239 25.8038 85.3886 27.2141L95.6207 66.9633C95.9822 68.3744 95.7693 69.8713 95.0285 71.1255C94.2878 72.3798 93.0798 73.289 91.6695 73.6538ZM30.0334 36.4575C28.7891 36.7793 27.7232 37.5816 27.0696 38.6883C26.416 39.795 26.2281 41.1157 26.5471 42.3608L36.7792 82.1101C37.101 83.3544 37.9033 84.4203 39.01 85.0739C40.1167 85.7274 41.4375 85.9153 42.6825 85.5963L91.5084 73.0278C92.7528 72.706 93.8187 71.9037 94.4722 70.797C95.1258 69.6903 95.3137 68.3695 94.9947 67.1245L84.7626 27.3752C84.4408 26.1309 83.6385 25.065 82.5318 24.4114C81.4251 23.7578 80.1043 23.5699 78.8593 23.8889L30.0334 36.4575Z" fill="#E6E6E6"/>
<path d="M76.2212 36.6283L51.5794 42.9715C51.364 43.0316 51.1337 43.0077 50.9352 42.9046C50.7367 42.8015 50.5848 42.6269 50.5101 42.4161C50.4754 42.3059 50.4634 42.1899 50.475 42.0749C50.4866 41.96 50.5214 41.8487 50.5775 41.7477C50.6335 41.6467 50.7095 41.5582 50.8009 41.4876C50.8923 41.4169 50.9971 41.3656 51.1089 41.3369L76.1928 34.8799C77.206 35.3933 76.9397 36.4433 76.2212 36.6283Z" fill="#F2F2F2"/>
<path d="M77.3337 40.9506L52.6919 47.2937C52.4765 47.3539 52.2463 47.33 52.0478 47.2269C51.8493 47.1238 51.6973 46.9492 51.6227 46.7383C51.5879 46.6282 51.576 46.5121 51.5875 46.3972C51.5991 46.2823 51.634 46.171 51.69 46.07C51.7461 45.969 51.8221 45.8805 51.9135 45.8098C52.0048 45.7392 52.1096 45.6879 52.2215 45.6591L77.3053 39.2021C78.3186 39.7156 78.0522 40.7656 77.3337 40.9506Z" fill="#F2F2F2"/>
<path d="M47.9985 51.126L40.478 53.0619C40.2324 53.1249 39.9719 53.0878 39.7535 52.9589C39.5352 52.83 39.377 52.6197 39.3135 52.3742L37.029 43.4995C36.966 43.2539 37.0031 42.9933 37.132 42.775C37.261 42.5567 37.4713 42.3984 37.7167 42.3349L45.2372 40.3991C45.4828 40.3362 45.7433 40.3733 45.9616 40.5022C46.1799 40.6311 46.3382 40.8414 46.4017 41.0868L48.6862 49.9615C48.7492 50.2071 48.7121 50.4677 48.5832 50.686C48.4542 50.9043 48.244 51.0626 47.9985 51.126Z" fill="#E6E6E6"/>
<path d="M79.54 49.8188L41.9322 59.4997C41.7167 59.5598 41.4865 59.5359 41.288 59.4328C41.0895 59.3297 40.9376 59.1551 40.8629 58.9443C40.8281 58.8341 40.8162 58.7181 40.8278 58.6031C40.8394 58.4882 40.8742 58.3769 40.9303 58.2759C40.9863 58.1749 41.0623 58.0864 41.1537 58.0158C41.2451 57.9451 41.3499 57.8938 41.4617 57.865L79.5119 48.0703C80.5252 48.5837 80.2586 49.6339 79.54 49.8188Z" fill="#F2F2F2"/>
<path d="M80.6531 54.1425L43.0452 63.8234C42.8298 63.8835 42.5995 63.8596 42.4011 63.7565C42.2026 63.6534 42.0506 63.4788 41.9759 63.268C41.9412 63.1578 41.9292 63.0418 41.9408 62.9269C41.9524 62.812 41.9873 62.7006 42.0433 62.5996C42.0993 62.4986 42.1754 62.4101 42.2667 62.3395C42.3581 62.2688 42.4629 62.2176 42.5748 62.1888L80.625 52.394C81.6382 52.9075 81.3716 53.9576 80.6531 54.1425Z" fill="#F2F2F2"/>
<path d="M81.7654 58.4633L44.1575 68.1442C43.9421 68.2043 43.7118 68.1805 43.5133 68.0773C43.3149 67.9742 43.1629 67.7996 43.0882 67.5888C43.0535 67.4786 43.0415 67.3626 43.0531 67.2477C43.0647 67.1328 43.0996 67.0214 43.1556 66.9204C43.2116 66.8194 43.2877 66.7309 43.379 66.6603C43.4704 66.5897 43.5752 66.5384 43.6871 66.5096L81.7373 56.7148C82.7505 57.2283 82.4839 58.2784 81.7654 58.4633Z" fill="#F2F2F2"/>
<path d="M82.8782 62.7866L45.2703 72.4674C45.0549 72.5276 44.8246 72.5037 44.6262 72.4006C44.4277 72.2975 44.2757 72.1229 44.201 71.912C44.1663 71.8019 44.1543 71.6858 44.1659 71.5709C44.1775 71.456 44.2124 71.3446 44.2684 71.2437C44.3244 71.1427 44.4005 71.0542 44.4918 70.9835C44.5832 70.9129 44.688 70.8616 44.7999 70.8328L82.8501 61.0381C83.8633 61.5515 83.5967 62.6016 82.8782 62.7866Z" fill="#F2F2F2"/>
<path d="M83.9905 67.1079L46.3826 76.7887C46.1672 76.8489 45.9369 76.825 45.7384 76.7219C45.54 76.6188 45.388 76.4441 45.3133 76.2333C45.2786 76.1232 45.2666 76.0071 45.2782 75.8922C45.2898 75.7773 45.3247 75.6659 45.3807 75.565C45.4367 75.464 45.5128 75.3754 45.6041 75.3048C45.6955 75.2342 45.8003 75.1829 45.9122 75.1541L83.9624 65.3594C84.9756 65.8728 84.709 66.9229 83.9905 67.1079Z" fill="#F2F2F2"/>
<path d="M44.2731 106.874C44.1364 106.91 43.9919 106.9 43.8614 106.846L43.8533 106.842L42.1432 106.117C42.0638 106.084 41.9919 106.035 41.9314 105.974C41.871 105.912 41.8232 105.839 41.7909 105.759C41.7586 105.68 41.7424 105.594 41.7432 105.508C41.744 105.422 41.7617 105.337 41.7954 105.257C41.8292 105.178 41.8782 105.106 41.9397 105.046C42.0013 104.985 42.0741 104.938 42.154 104.906C42.234 104.873 42.3195 104.857 42.4057 104.858C42.4918 104.859 42.577 104.877 42.6563 104.911L43.7644 105.382L45.2164 101.966C45.2501 101.887 45.299 101.815 45.3605 101.755C45.4219 101.695 45.4946 101.647 45.5744 101.615C45.6542 101.583 45.7396 101.567 45.8256 101.567C45.9117 101.568 45.9967 101.586 46.0759 101.62L46.0674 101.642L46.0765 101.62C46.2363 101.688 46.3626 101.817 46.4276 101.978C46.4925 102.139 46.4909 102.319 46.4231 102.479L44.7147 106.496C44.6751 106.588 44.6147 106.671 44.5382 106.736C44.4617 106.801 44.3711 106.848 44.2735 106.873L44.2731 106.874Z" fill="white"/>
<path d="M149.467 150.179H66.0842C63.2566 150.176 60.5457 149.051 58.5463 147.052C56.5468 145.052 55.4221 142.341 55.4189 139.514V41.5871C55.4221 38.7595 56.5468 36.0486 58.5463 34.0492C60.5457 32.0498 63.2566 30.9251 66.0842 30.9219H143.658L160.132 44.0527V139.514C160.129 142.341 159.005 145.052 157.005 147.052C155.006 149.051 152.295 150.176 149.467 150.179Z" fill="#E6E6E6"/>
<path d="M66.0842 33.9922C64.0706 33.9945 62.1401 34.7954 60.7163 36.2192C59.2924 37.643 58.4915 39.5735 58.4893 41.5871V139.514C58.4915 141.527 59.2924 143.458 60.7163 144.882C62.1401 146.305 64.0706 147.106 66.0842 147.109H149.467C151.481 147.106 153.411 146.305 154.835 144.882C156.259 143.458 157.06 141.527 157.062 139.514V45.5319L142.584 33.9922H66.0842Z" fill="white"/>
<path d="M133.249 62.4667H95.2861C94.815 62.4667 94.3633 62.2795 94.0302 61.9465C93.6971 61.6134 93.51 61.1616 93.51 60.6906C93.51 60.2196 93.6971 59.7678 94.0302 59.4347C94.3633 59.1017 94.815 58.9146 95.2861 58.9146H133.249C133.72 58.9146 134.172 59.1017 134.505 59.4347C134.838 59.7678 135.025 60.2196 135.025 60.6906C135.025 61.1616 134.838 61.6134 134.505 61.9465C134.172 62.2795 133.72 62.4667 133.249 62.4667Z" fill="#6533E7"/>
<path d="M140.575 68.4608H95.2861C94.8155 68.4602 94.3644 68.2728 94.0318 67.9398C93.6992 67.6067 93.5125 67.1554 93.5125 66.6847C93.5125 66.2141 93.6992 65.7627 94.0318 65.4297C94.3644 65.0967 94.8155 64.9093 95.2861 64.9087H140.575C140.809 64.9084 141.04 64.9541 141.256 65.0432C141.472 65.1323 141.668 65.2631 141.833 65.428C141.998 65.593 142.129 65.7889 142.218 66.0045C142.308 66.2202 142.354 66.4513 142.354 66.6847C142.354 66.9182 142.308 67.1493 142.218 67.365C142.129 67.5806 141.998 67.7765 141.833 67.9414C141.668 68.1064 141.472 68.2372 141.256 68.3263C141.04 68.4154 140.809 68.4611 140.575 68.4608Z" fill="#6533E7"/>
<path d="M133.25 85.7764H95.2876C94.8166 85.7764 94.3649 85.9635 94.0319 86.2965C93.6988 86.6296 93.5117 87.0813 93.5117 87.5523C93.5117 88.0233 93.6988 88.475 94.0319 88.8081C94.3649 89.1411 94.8166 89.3282 95.2876 89.3282H133.25C133.721 89.3282 134.172 89.1411 134.505 88.8081C134.838 88.475 135.025 88.0233 135.025 87.5523C135.025 87.0813 134.838 86.6296 134.505 86.2965C134.172 85.9635 133.721 85.7764 133.25 85.7764Z" fill="#CCCCCC"/>
<path d="M140.576 91.7715H95.2876C94.8166 91.7715 94.3649 91.9586 94.0319 92.2916C93.6988 92.6247 93.5117 93.0764 93.5117 93.5474C93.5117 94.0184 93.6988 94.4701 94.0319 94.8032C94.3649 95.1362 94.8166 95.3233 95.2876 95.3233H140.576C141.047 95.3233 141.499 95.1362 141.832 94.8032C142.165 94.4701 142.352 94.0184 142.352 93.5474C142.352 93.0764 142.165 92.6247 141.832 92.2916C141.499 91.9586 141.047 91.7715 140.576 91.7715Z" fill="#CCCCCC"/>
<path d="M133.249 116.192H95.2861C94.815 116.192 94.3633 116.005 94.0302 115.672C93.6971 115.339 93.51 114.887 93.51 114.416C93.51 113.945 93.6971 113.493 94.0302 113.16C94.3633 112.827 94.815 112.64 95.2861 112.64H133.249C133.72 112.64 134.172 112.827 134.505 113.16C134.838 113.493 135.025 113.945 135.025 114.416C135.025 114.887 134.838 115.339 134.505 115.672C134.172 116.005 133.72 116.192 133.249 116.192Z" fill="#CCCCCC"/>
<path d="M140.575 122.186H95.2861C94.8155 122.186 94.3644 121.998 94.0318 121.665C93.6992 121.332 93.5125 120.881 93.5125 120.41C93.5125 119.94 93.6992 119.488 94.0318 119.155C94.3644 118.822 94.8155 118.635 95.2861 118.634H140.575C140.809 118.634 141.04 118.68 141.256 118.769C141.472 118.858 141.668 118.989 141.833 119.154C141.998 119.319 142.129 119.514 142.218 119.73C142.308 119.946 142.354 120.177 142.354 120.41C142.354 120.644 142.308 120.875 142.218 121.091C142.129 121.306 141.998 121.502 141.833 121.667C141.668 121.832 141.472 121.963 141.256 122.052C141.04 122.141 140.809 122.187 140.575 122.186Z" fill="#CCCCCC"/>
<path d="M79.4773 69.9649C82.9442 69.9649 85.7547 67.1544 85.7547 63.6875C85.7547 60.2206 82.9442 57.4102 79.4773 57.4102C76.0104 57.4102 73.2 60.2206 73.2 63.6875C73.2 67.1544 76.0104 69.9649 79.4773 69.9649Z" fill="#6533E7"/>
<path d="M78.8552 66.0823C78.714 66.0826 78.5765 66.0369 78.4635 65.9522L78.4565 65.9469L76.9812 64.8184C76.9127 64.7661 76.8552 64.7008 76.8119 64.6262C76.7686 64.5516 76.7405 64.4692 76.7291 64.3838C76.7177 64.2983 76.7233 64.2115 76.7456 64.1282C76.7678 64.0449 76.8062 63.9668 76.8587 63.8984C76.9111 63.8299 76.9766 63.7725 77.0513 63.7294C77.1259 63.6863 77.2084 63.6584 77.2938 63.6472C77.3793 63.636 77.4662 63.6418 77.5494 63.6642C77.6327 63.6866 77.7107 63.7252 77.779 63.7778L78.7345 64.5106L80.9926 61.5647C81.0449 61.4964 81.1102 61.4391 81.1847 61.396C81.2593 61.353 81.3415 61.325 81.4268 61.3137C81.5122 61.3025 81.5989 61.3081 81.682 61.3304C81.7651 61.3526 81.8431 61.391 81.9114 61.4434L81.8975 61.463L81.9119 61.4435C82.0497 61.5494 82.1399 61.7056 82.1626 61.8779C82.1853 62.0502 82.1388 62.2245 82.0332 62.3625L79.3772 65.8259C79.3158 65.9057 79.2368 65.9703 79.1463 66.0146C79.0559 66.0589 78.9565 66.0819 78.8558 66.0816L78.8552 66.0823Z" fill="white"/>
<path d="M86.3999 90.5498C86.4003 91.3743 86.2381 92.1907 85.9229 92.9525C85.6076 93.7143 85.1454 94.4066 84.5625 94.9897C83.9797 95.5728 83.2877 96.0354 82.5261 96.3511C81.7644 96.6667 80.9481 96.8293 80.1236 96.8294C80.0697 96.8305 80.0157 96.8283 79.962 96.8229C78.7277 96.7913 77.5302 96.3963 76.5193 95.6874C75.5083 94.9786 74.7289 93.9873 74.2785 92.8377C73.8281 91.6881 73.7267 90.4312 73.9871 89.2242C74.2475 88.0173 74.858 86.914 75.7423 86.0523C76.6267 85.1906 77.7454 84.6089 78.9587 84.3799C80.172 84.1509 81.4259 84.2848 82.5634 84.7649C83.701 85.2449 84.6717 86.0498 85.3541 87.0787C86.0365 88.1077 86.4003 89.3151 86.3999 90.5498Z" fill="#CCCCCC"/>
<path d="M79.4773 123.69C82.9442 123.69 85.7547 120.88 85.7547 117.413C85.7547 113.946 82.9442 111.136 79.4773 111.136C76.0104 111.136 73.2 113.946 73.2 117.413C73.2 120.88 76.0104 123.69 79.4773 123.69Z" fill="#CCCCCC"/>
<path d="M159.812 44.4752H146.907C145.965 44.4752 145.062 44.101 144.395 43.4348C143.729 42.7687 143.355 41.8652 143.355 40.9231V31.3919C143.355 31.3502 143.367 31.3093 143.389 31.274C143.411 31.2386 143.443 31.2102 143.48 31.1921C143.518 31.1739 143.56 31.1667 143.601 31.1713C143.643 31.1758 143.682 31.192 143.715 31.2179L159.95 44.0792C159.986 44.1078 160.012 44.147 160.025 44.1912C160.038 44.2355 160.037 44.2827 160.021 44.3262C160.006 44.3697 159.978 44.4075 159.94 44.4342C159.903 44.4609 159.858 44.4752 159.812 44.4752Z" fill="#CCCCCC"/>
<path d="M86.3998 90.5499C86.4001 91.3744 86.238 92.1908 85.9228 92.9526C85.6075 93.7144 85.1452 94.4067 84.5624 94.9898C83.9796 95.5729 83.2876 96.0355 82.5259 96.3512C81.7643 96.6669 80.9479 96.8294 80.1235 96.8295C80.0695 96.8306 80.0156 96.8284 79.9619 96.823C79.1509 94.8003 78.8383 92.6122 79.0503 90.4433C79.2624 88.2743 79.9929 86.1882 81.1803 84.3608C82.6405 84.6111 83.9653 85.3696 84.9204 86.5021C85.8755 87.6347 86.3995 89.0684 86.3998 90.5499Z" fill="#6533E7"/>
<path d="M93.51 87.5539C93.5109 87.0827 93.6984 86.6311 94.0316 86.2979C94.3647 85.9648 94.8164 85.7772 95.2876 85.7764H104.747C105.3 86.9002 105.693 88.0957 105.914 89.3282H95.2876C94.8167 89.3281 94.3651 89.1412 94.0319 88.8086C93.6987 88.476 93.511 88.0248 93.51 87.5539Z" fill="#6533E7"/>
<path d="M106.134 91.7715C106.135 92.9711 105.976 94.1655 105.662 95.3233H95.2876C94.8166 95.3233 94.3649 95.1362 94.0319 94.8032C93.6988 94.4701 93.5117 94.0184 93.5117 93.5474C93.5117 93.0764 93.6988 92.6247 94.0319 92.2916C94.3649 91.9586 94.8166 91.7715 95.2876 91.7715H106.134Z" fill="#6533E7"/>
<path d="M129.54 113.676C129.272 114.116 128.841 114.43 128.341 114.551C127.841 114.672 127.314 114.59 126.875 114.322L104.25 100.522C104.032 100.389 103.843 100.215 103.693 100.009C103.543 99.8037 103.435 99.5705 103.375 99.323C103.315 99.0755 103.304 98.8186 103.344 98.567C103.383 98.3154 103.471 98.074 103.604 97.8566C103.737 97.6392 103.911 97.45 104.116 97.2999C104.322 97.1498 104.555 97.0417 104.803 96.9818C105.05 96.9218 105.307 96.9112 105.559 96.9505C105.81 96.9898 106.052 97.0783 106.269 97.2109L128.894 111.011C129.333 111.279 129.648 111.71 129.769 112.21C129.89 112.71 129.808 113.237 129.54 113.676Z" fill="#3F3D56"/>
<path d="M106.915 99.876C105.317 102.495 102.979 104.582 100.195 105.872C97.4112 107.163 94.3074 107.599 91.276 107.125C88.2445 106.651 85.4217 105.289 83.1643 103.211C80.907 101.133 79.3165 98.4324 78.5941 95.4504C77.8717 92.4685 78.0497 89.3393 79.1057 86.4585C80.1617 83.5778 82.0483 81.0749 84.5268 79.2663C87.0053 77.4577 89.9644 76.4247 93.03 76.2979C96.0956 76.1711 99.1299 76.9562 101.749 78.554C105.258 80.6997 107.773 84.1496 108.741 88.1469C109.709 92.1441 109.053 96.3623 106.915 99.876ZM83.7382 85.7391C82.5399 87.7036 81.9511 89.9794 82.0462 92.2786C82.1413 94.5778 82.916 96.7971 84.2725 98.656C85.6289 100.515 87.5061 101.93 89.6666 102.722C91.8272 103.514 94.1741 103.647 96.4105 103.106C98.647 102.564 100.673 101.371 102.231 99.6778C103.79 97.9848 104.811 95.8677 105.166 93.5941C105.522 91.3206 105.195 88.9927 104.227 86.9049C103.259 84.8171 101.694 83.0632 99.7297 81.8649C97.0945 80.2616 93.9308 79.769 90.9329 80.4953C87.9349 81.2216 85.3475 83.1075 83.7382 85.7391Z" fill="#3F3D56"/>
<path d="M156.619 94.2854C161.003 94.2854 164.557 90.7315 164.557 86.3475C164.557 81.9636 161.003 78.4097 156.619 78.4097C152.235 78.4097 148.681 81.9636 148.681 86.3475C148.681 90.7315 152.235 94.2854 156.619 94.2854Z" fill="#A0616A"/>
<path d="M156.106 130.848C155.953 130.371 155.902 129.867 155.957 129.369C156.013 128.871 156.172 128.39 156.426 127.959C156.68 127.527 157.023 127.154 157.431 126.863C157.839 126.573 158.304 126.372 158.795 126.274C158.951 126.244 159.109 126.224 159.267 126.216L167.628 112.796L159.991 105.535C159.699 105.258 159.465 104.925 159.302 104.557C159.14 104.188 159.052 103.792 159.043 103.389C159.035 102.986 159.106 102.586 159.254 102.211C159.401 101.837 159.621 101.495 159.901 101.205C160.181 100.916 160.515 100.685 160.885 100.526C161.255 100.367 161.653 100.282 162.055 100.278C162.458 100.273 162.858 100.348 163.231 100.499C163.605 100.649 163.944 100.872 164.231 101.155L174.777 111.553L174.798 111.579C175.124 112.075 175.282 112.664 175.247 113.257C175.212 113.85 174.987 114.416 174.606 114.871L162.89 128.727C162.925 128.838 162.954 128.951 162.977 129.065C163.075 129.556 163.068 130.063 162.957 130.551C162.846 131.039 162.632 131.499 162.331 131.899C162.03 132.299 161.647 132.631 161.208 132.873C160.77 133.115 160.285 133.262 159.786 133.304C159.685 133.313 159.585 133.317 159.485 133.317C158.733 133.314 158.002 133.073 157.395 132.63C156.788 132.187 156.337 131.563 156.106 130.848Z" fill="#A0616A"/>
<path d="M143.545 196.823L139.583 196.823L137.698 181.54L143.546 181.54L143.545 196.823Z" fill="#A0616A"/>
<path d="M144.555 200.664L131.78 200.663V200.501C131.78 199.848 131.908 199.202 132.158 198.599C132.408 197.995 132.774 197.447 133.236 196.985C133.698 196.523 134.246 196.157 134.849 195.907C135.453 195.657 136.099 195.529 136.752 195.529L144.556 195.529L144.555 200.664Z" fill="#2F2E41"/>
<path d="M182.928 191.344L179.523 193.371L170.084 181.205L175.109 178.213L182.928 191.344Z" fill="#A0616A"/>
<path d="M185.761 194.128L174.783 200.663L174.701 200.525C174.367 199.964 174.146 199.342 174.052 198.696C173.958 198.05 173.993 197.391 174.153 196.758C174.314 196.125 174.597 195.53 174.988 195.007C175.378 194.483 175.868 194.042 176.429 193.708L183.134 189.716L185.761 194.128Z" fill="#2F2E41"/>
<path d="M137.198 190.092C134.544 158.838 132.965 129.803 142.668 117.959L142.743 117.867L159.072 124.399L159.099 124.457C159.154 124.577 164.585 136.523 163.318 144.558L167.346 163.085L180.479 185.076C180.585 185.253 180.651 185.45 180.675 185.655C180.699 185.86 180.678 186.067 180.616 186.264C180.553 186.46 180.449 186.641 180.312 186.794C180.174 186.948 180.005 187.07 179.816 187.153L174.109 189.664C173.787 189.804 173.425 189.824 173.09 189.719C172.754 189.614 172.468 189.392 172.283 189.093L157.997 165.798L149.928 147.93C149.884 147.833 149.809 147.753 149.716 147.703C149.622 147.652 149.514 147.634 149.409 147.651C149.304 147.668 149.207 147.719 149.134 147.796C149.061 147.873 149.015 147.972 149.004 148.078L144.531 190.124C144.493 190.482 144.325 190.812 144.058 191.053C143.791 191.293 143.444 191.425 143.085 191.425H138.648C138.284 191.423 137.933 191.285 137.665 191.039C137.397 190.792 137.231 190.455 137.198 190.092Z" fill="#2F2E41"/>
<path d="M142.723 118.206L142.645 118.169L142.633 118.083C142.023 113.814 142.745 109.07 144.779 103.984C145.781 101.495 147.645 99.4484 150.03 98.2179C152.414 96.9873 155.162 96.6545 157.772 97.28C159.275 97.6504 160.685 98.329 161.912 99.2728C163.139 100.217 164.157 101.405 164.901 102.763C165.636 104.106 166.083 105.588 166.215 107.114C166.347 108.639 166.161 110.176 165.668 111.626C163.104 119.124 159.778 126.14 159.745 126.21L159.675 126.356L142.723 118.206Z" fill="#6533E7"/>
<path d="M124.907 107.572C125.3 107.262 125.754 107.038 126.24 106.915C126.725 106.793 127.232 106.774 127.725 106.861C128.218 106.947 128.688 107.137 129.103 107.418C129.518 107.699 129.869 108.064 130.132 108.49C130.215 108.625 130.289 108.766 130.352 108.911L145.85 112.044L149.977 102.347C150.135 101.976 150.364 101.641 150.652 101.36C150.94 101.078 151.281 100.857 151.655 100.708C152.029 100.559 152.429 100.486 152.832 100.493C153.235 100.499 153.632 100.586 154.001 100.747C154.37 100.908 154.703 101.14 154.982 101.431C155.261 101.721 155.479 102.064 155.625 102.44C155.77 102.815 155.839 103.216 155.829 103.618C155.819 104.021 155.729 104.417 155.565 104.785L149.518 118.304L149.501 118.333C149.15 118.812 148.654 119.166 148.087 119.341C147.519 119.516 146.91 119.504 146.35 119.306L129.269 113.184C129.177 113.256 129.082 113.323 128.983 113.384C128.557 113.648 128.08 113.819 127.584 113.886C127.087 113.953 126.582 113.914 126.102 113.771C125.621 113.629 125.176 113.387 124.796 113.061C124.416 112.735 124.109 112.333 123.895 111.88C123.851 111.788 123.812 111.696 123.777 111.602C123.517 110.897 123.486 110.128 123.689 109.404C123.891 108.68 124.318 108.039 124.907 107.572Z" fill="#A0616A"/>
<path d="M185.295 94.8481C184.53 93.4934 183.416 92.2525 181.944 91.7517C180.042 91.105 177.982 91.7936 176.027 92.2534C174.52 92.6076 172.946 92.8244 171.428 92.5255C169.909 92.2266 168.445 91.3428 167.754 89.958C166.737 87.9208 167.594 85.4913 167.532 83.2155C167.5 81.9766 167.187 80.761 166.618 79.6605C166.048 78.56 165.235 77.6032 164.242 76.8622C163.249 76.1212 162.1 75.6155 160.883 75.383C159.665 75.1505 158.411 75.1974 157.214 75.5201C155.342 74.9798 153.647 74.9298 152.489 76.3692C151.031 76.3692 149.634 76.9481 148.604 77.9784C147.573 79.0088 146.994 80.4063 146.994 81.8634H152.248C151.999 83.203 152.284 84.5869 153.041 85.7194C153.969 87.0819 155.581 88.0676 155.892 89.6863C156.193 91.2549 155.126 92.7432 154.008 93.8834C152.889 95.0236 151.592 96.1534 151.243 97.712C151.029 98.8952 151.272 100.115 151.922 101.126C152.572 102.125 153.378 103.013 154.31 103.756C158.506 107.351 163.494 109.903 168.865 111.202C172.648 112.113 176.785 112.349 180.297 110.674C181.702 110.003 182.953 109.052 183.975 107.877C184.996 106.703 185.765 105.331 186.234 103.847C186.702 102.362 186.861 100.798 186.699 99.2498C186.538 97.7018 186.06 96.2036 185.295 94.8481Z" fill="#2F2E41"/>
<path d="M186.481 201H125.075C124.989 201 124.907 200.966 124.846 200.905C124.786 200.845 124.752 200.762 124.752 200.677C124.752 200.591 124.786 200.509 124.846 200.448C124.907 200.388 124.989 200.354 125.075 200.354H186.481C186.567 200.354 186.649 200.388 186.709 200.448C186.77 200.509 186.804 200.591 186.804 200.677C186.804 200.762 186.77 200.845 186.709 200.905C186.649 200.966 186.567 201 186.481 201Z" fill="#CCCCCC"/>
</g>
<defs>
<clipPath id="clip0_259_2483">
<rect width="186.804" height="201" fill="white"/>
</clipPath>
</defs>
</svg>
